<?xml version="1.0" standalone="no"?>
<!DOCTYPE svg PUBLIC "-//W3C//DTD SVG 20010904//EN"
 "http://www.w3.org/TR/2001/REC-SVG-20010904/DTD/svg10.dtd">
<svg version="1.0" xmlns="http://www.w3.org/2000/svg"
 width="1080.000000pt" height="1080.000000pt" viewBox="0 0 1080.000000 1080.000000"
 preserveAspectRatio="xMidYMid meet">
<metadata>
Created by potrace 1.15, written by Peter Selinger 2001-2017
</metadata>
<g transform="translate(0.000000,1080.000000) scale(0.100000,-0.100000)"
fill="#000000" stroke="none">
<path d="M0 5400 l0 -5400 5400 0 5400 0 0 5400 0 5400 -5400 0 -5400 0 0
-5400z m7660 5096 c237 -41 403 -93 600 -189 139 -68 185 -94 273 -158 37 -27
72 -49 77 -49 5 0 13 -6 17 -14 4 -7 41 -40 80 -73 73 -61 207 -199 274 -283
180 -224 348 -575 404 -845 9 -44 20 -98 25 -120 47 -216 34 -632 -29 -875
-26 -104 -67 -232 -89 -280 -95 -211 -157 -318 -269 -470 -50 -66 -307 -331
-378 -388 -66 -53 -204 -152 -211 -152 -4 0 -15 -6 -23 -14 -26 -23 -217 -115
-305 -148 -233 -86 -428 -118 -766 -125 -215 -5 -273 -3 -360 12 -243 41 -556
155 -735 268 -191 120 -278 190 -435 347 -88 88 -205 227 -245 291 -5 9 -23
36 -39 60 -70 104 -146 275 -207 461 -125 383 -141 802 -44 1178 55 216 161
460 272 625 158 235 393 473 603 612 47 31 97 64 111 74 96 64 336 161 499
202 167 42 203 49 390 71 71 9 428 -4 510 -18z m-3100 -4671 l0 -2335 -615 0
-615 0 0 2335 0 2335 615 0 615 0 0 -2335z m259 1739 c45 -253 185 -584 341
-804 86 -122 214 -270 289 -338 132 -118 380 -283 515 -342 l46 -21 0 -1289 0
-1290 -610 0 -610 0 0 2075 c0 1218 4 2075 9 2075 5 0 14 -29 20 -66z m4431
-588 c21 -20 581 -588 1305 -1324 105 -106 191 -202 193 -212 4 -22 -59 -98
-198 -240 -120 -122 -247 -220 -284 -220 -10 0 -80 63 -158 143 -462 469 -798
810 -1074 1088 -173 174 -314 320 -314 326 0 30 270 316 370 393 105 80 121
84 160 46z m-6140 -2276 l0 -1190 -610 0 -610 0 0 1190 0 1190 610 0 610 0 0
-1190z m-1440 -555 l0 -625 -610 0 -610 0 0 625 0 625 610 0 610 0 0 -625z
m-617 -1020 c104 -38 147 -119 147 -275 0 -111 -19 -176 -67 -223 -51 -52
-109 -67 -260 -67 l-123 0 0 -145 0 -145 -140 0 -140 0 0 434 0 435 53 4 c28
2 149 3 267 2 177 -2 224 -5 263 -20z m756 4 c24 -7 60 -28 81 -48 49 -47 68
-126 51 -216 -13 -72 -34 -103 -86 -129 l-39 -19 39 -14 c82 -28 120 -99 120
-223 0 -64 -5 -83 -28 -122 -53 -91 -160 -112 -507 -100 l-195 7 -3 437 -2
437 72 4 c135 8 452 -1 497 -14z m1019 -4 c154 -53 210 -185 199 -469 -13
-352 -119 -423 -592 -400 l-180 9 -3 437 -2 437 77 4 c43 2 161 3 263 2 149
-2 195 -5 238 -20z m3270 1 l54 -17 -7 -82 c-4 -45 -9 -85 -12 -89 -2 -5 -82
-8 -178 -8 -178 0 -205 -3 -205 -25 0 -22 33 -41 163 -95 207 -86 261 -149
261 -300 0 -193 -92 -260 -354 -260 -112 0 -196 9 -293 31 l-48 11 6 67 c3 36
8 81 11 99 l5 34 189 -4 c192 -3 217 1 205 34 -3 8 -66 41 -139 72 -226 98
-281 158 -280 306 0 41 6 92 13 112 16 48 79 104 133 118 24 6 48 13 53 15 6
3 91 3 190 1 135 -2 193 -8 233 -20z m750 4 l43 -13 -5 -46 c-3 -25 -8 -72
-12 -103 l-6 -58 -158 0 c-177 0 -181 -2 -200 -68 -12 -46 -13 -223 0 -277 17
-73 32 -78 217 -73 l161 4 6 -66 c4 -36 9 -81 12 -101 5 -34 4 -36 -33 -47
-133 -39 -364 -41 -463 -3 -105 40 -162 112 -189 239 -17 79 -14 300 5 383 28
123 101 203 214 234 66 18 339 14 408 -5z m2670 0 l43 -13 -5 -46 c-3 -25 -8
-72 -12 -103 l-6 -58 -158 0 c-177 0 -181 -2 -200 -68 -12 -46 -13 -223 0
-277 17 -73 32 -78 217 -73 l161 4 6 -66 c4 -36 9 -81 12 -101 5 -34 4 -36
-33 -47 -133 -39 -364 -41 -463 -3 -105 40 -162 112 -189 239 -17 79 -14 300
5 383 28 123 101 203 214 234 66 18 339 14 408 -5z m-5884 -20 c20 -20 47
-103 136 -420 61 -217 113 -401 115 -407 3 -10 -29 -13 -139 -13 l-143 0 -20
88 -19 87 -116 3 c-105 2 -117 1 -121 -15 -3 -10 -13 -51 -22 -90 l-17 -73
-142 0 -143 0 98 348 c144 507 135 480 172 503 29 18 47 19 184 17 148 -3 153
-4 177 -28z m894 -77 l3 -103 -121 0 -120 0 0 -330 0 -330 -140 0 -140 0 0
330 0 330 -120 0 -120 0 0 105 0 105 378 -2 377 -3 3 -102z m516 77 c20 -20
47 -103 136 -420 61 -217 113 -401 115 -407 3 -10 -29 -13 -139 -13 l-143 0
-20 88 -19 87 -116 3 c-105 2 -117 1 -121 -15 -3 -10 -13 -51 -22 -90 l-17
-73 -142 0 -143 0 98 348 c144 507 135 480 172 503 29 18 47 19 184 17 148 -3
153 -4 177 -28z m2174 -407 l2 -433 -140 0 -140 0 0 428 c0 236 3 432 7 436 4
3 66 5 137 4 l131 -3 3 -432z m665 431 l77 -7 0 -61 c0 -34 -3 -78 -6 -98 l-7
-38 -163 0 c-151 0 -166 -2 -184 -20 -13 -13 -20 -33 -20 -60 l0 -40 163 -2
162 -3 0 -90 0 -90 -162 -3 -163 -2 0 -51 c0 -91 -4 -89 191 -89 198 0 184 9
184 -120 l0 -85 -75 -6 c-41 -4 -152 -7 -246 -8 -164 -1 -172 0 -222 25 -39
19 -59 38 -80 72 l-27 47 -3 270 c-2 178 1 285 8 315 15 59 49 103 102 129 39
19 60 21 219 21 97 0 210 -3 252 -6z m386 -8 c30 -16 235 -328 280 -427 l26
-58 -3 250 -3 249 126 0 125 0 0 -412 c0 -497 12 -458 -141 -458 -88 0 -100 2
-123 23 -37 34 -237 355 -260 418 l-21 56 3 -248 4 -249 -131 0 -131 0 0 398
c0 424 1 434 50 459 34 17 164 17 199 -1z m1924 8 l77 -7 0 -61 c0 -34 -3 -78
-6 -98 l-7 -38 -163 0 c-151 0 -166 -2 -184 -20 -13 -13 -20 -33 -20 -60 l0
-40 163 -2 162 -3 0 -90 0 -90 -162 -3 -163 -2 0 -51 c0 -91 -4 -89 191 -89
198 0 184 9 184 -120 l0 -85 -75 -6 c-41 -4 -152 -7 -246 -8 -164 -1 -172 0
-222 25 -39 19 -59 38 -80 72 l-27 47 -3 270 c-2 178 1 285 8 315 15 59 49
103 102 129 39 19 60 21 219 21 97 0 210 -3 252 -6z"/>
<path d="M7165 10153 c-42 -3 -142 -23 -257 -50 l-68 -16 0 -57 c0 -68 24
-204 46 -255 22 -54 47 -73 113 -86 94 -18 123 -8 166 56 57 87 63 108 67 262
3 114 1 143 -10 148 -7 3 -14 4 -15 3 -1 -1 -20 -3 -42 -5z"/>
<path d="M7406 10148 c-3 -7 -7 -78 -9 -158 -4 -124 -8 -155 -29 -213 -66
-175 -169 -247 -355 -247 -104 0 -158 29 -226 122 -15 20 -27 43 -27 50 0 8
-4 18 -9 24 -12 13 -49 130 -65 205 l-13 64 -46 -2 c-64 -4 -176 -60 -274
-138 l-83 -65 0 -143 c0 -78 -4 -148 -9 -155 -10 -17 -87 -22 -106 -8 -10 7
-15 36 -17 85 -2 41 -7 76 -13 78 -15 4 -177 -153 -222 -217 -44 -61 -133
-207 -133 -217 0 -4 -9 -25 -19 -47 -42 -90 -51 -116 -84 -226 -33 -111 -43
-157 -66 -286 -14 -78 -14 -427 0 -513 34 -209 141 -488 249 -648 17 -24 30
-46 30 -49 0 -3 40 -58 89 -122 126 -165 263 -292 410 -381 60 -37 197 -92
205 -83 8 8 7 202 -1 202 -3 0 -30 -8 -60 -17 -68 -21 -83 -11 -64 45 29 81
120 137 213 130 l43 -3 3 -221 2 -222 83 -21 c45 -12 98 -26 117 -31 134 -36
325 -65 390 -58 l35 3 6 85 c11 161 45 220 166 290 63 36 75 36 150 9 86 -32
145 -96 166 -182 10 -36 17 -77 17 -91 0 -36 13 -39 67 -12 26 13 77 36 113
51 147 61 301 153 331 197 3 5 7 81 8 169 1 115 -1 159 -10 159 -6 0 -36 -22
-66 -50 -59 -54 -123 -81 -146 -61 -21 17 -30 87 -15 116 12 22 79 75 96 75 4
0 17 11 30 24 12 14 44 38 69 55 41 27 55 31 118 31 39 0 76 -5 82 -11 7 -7 9
-65 5 -180 -3 -93 -2 -169 2 -169 28 0 193 180 236 257 9 16 33 55 54 88 108
167 164 326 227 645 27 136 32 371 11 487 -16 82 -77 295 -116 396 -58 155
-172 360 -254 456 -80 96 -76 99 -82 -62 l-5 -142 -34 -3 c-20 -2 -37 2 -42
10 -5 7 -9 92 -9 188 -1 118 -5 182 -13 196 -12 22 -92 96 -137 127 -72 49
-108 73 -140 90 -19 11 -66 36 -105 57 -67 37 -199 83 -220 78 -6 -2 -10 -68
-10 -173 0 -115 -4 -177 -12 -191 -14 -24 -92 -49 -107 -34 -5 5 -8 102 -7
222 2 163 -1 217 -11 229 -13 16 -120 41 -233 54 -27 3 -65 8 -83 11 -21 3
-34 1 -36 -8z m739 -742 c17 -12 18 -30 12 -351 -6 -373 -7 -379 -64 -359
l-28 9 -3 280 c-1 157 -6 283 -12 289 -6 6 -24 -5 -50 -27 -45 -42 -87 -48
-114 -18 -17 19 -15 22 53 90 40 40 82 73 98 77 15 3 39 10 53 14 35 12 34 12
55 -4z m-1401 -32 c14 -5 16 -62 16 -530 l0 -523 -22 -12 c-21 -11 -116 -7
-138 6 -6 4 -10 150 -10 426 0 230 -3 419 -7 419 -5 0 -28 -12 -53 -26 -25
-15 -67 -35 -94 -45 -55 -21 -76 -13 -76 25 0 47 104 181 165 214 67 35 183
60 219 46z m771 -209 c85 -126 128 -275 106 -366 -17 -64 -60 -165 -99 -231
-42 -71 -70 -82 -190 -76 -84 4 -86 5 -117 41 -17 20 -44 62 -61 94 l-29 58 0
185 c1 206 -1 201 84 318 l32 43 116 -3 117 -3 41 -60z m-1477 -409 c1 -210
-2 -354 -7 -359 -6 -6 -27 -5 -55 4 -68 20 -72 34 -67 291 l3 217 -68 3 c-79
3 -88 15 -59 78 29 64 130 120 210 117 l40 -2 3 -349z m2618 -64 c24 -14 48
-37 55 -49 7 -13 16 -23 21 -23 4 0 8 -5 8 -12 0 -6 6 -19 14 -27 54 -63 68
-276 28 -416 -13 -44 -28 -84 -33 -89 -5 -6 -9 -18 -9 -27 0 -24 -63 -76 -107
-88 -60 -17 -139 -13 -181 8 -134 69 -187 286 -128 523 33 134 74 193 156 227
40 17 129 4 176 -27z m-620 -421 c5 -6 7 -146 4 -363 l-5 -353 -28 -3 c-57 -7
-57 -5 -57 299 0 154 -2 279 -5 279 -3 0 -23 -11 -45 -25 -51 -32 -71 -32 -98
5 -30 41 -28 59 11 75 19 8 51 29 71 47 47 42 128 62 152 39z m-716 -64 c144
-72 230 -265 230 -515 0 -155 -48 -343 -106 -419 -13 -17 -24 -35 -24 -40 0
-14 -75 -71 -114 -87 -28 -12 -57 -14 -114 -10 -224 18 -334 120 -362 338 -5
39 -10 151 -10 248 0 161 2 184 25 256 74 234 272 330 475 229z m-1031 -63
c72 -60 117 -180 127 -336 14 -218 -54 -369 -177 -398 -109 -26 -204 23 -262
137 -41 79 -51 127 -51 248 1 128 15 185 67 258 35 50 104 102 148 110 70 13
118 7 148 -19z"/>
<path d="M7334 9130 c-51 -20 -94 -149 -94 -284 0 -111 15 -160 66 -213 70
-74 127 -54 164 56 49 148 32 347 -34 410 -35 32 -71 43 -102 31z"/>
<path d="M8527 8594 c-68 -21 -94 -64 -103 -169 -8 -99 9 -217 39 -264 31 -51
66 -81 93 -81 58 0 114 120 114 245 -1 72 -22 237 -35 268 -9 21 -42 21 -108
1z"/>
<path d="M7059 8047 c-35 -26 -47 -44 -62 -92 -17 -54 -18 -83 -13 -288 5
-215 7 -230 30 -275 29 -57 79 -105 125 -121 94 -31 200 65 231 211 11 53 15
304 5 364 -15 94 -38 149 -80 192 l-42 42 -76 0 c-70 0 -79 -2 -118 -33z"/>
<path d="M6129 8034 c-91 -48 -120 -357 -43 -461 43 -58 161 -58 190 0 23 42
21 359 -1 415 -24 57 -87 78 -146 46z"/>
<path d="M7520 6940 c-17 -10 -39 -128 -40 -209 l0 -64 38 7 c20 4 72 13 114
19 42 7 80 16 84 20 20 19 -9 204 -34 224 -17 14 -141 16 -162 3z"/>
<path d="M750 2855 l0 -95 68 0 c88 0 102 13 102 93 0 80 -19 97 -105 97 l-65
0 0 -95z"/>
<path d="M1510 2875 l0 -75 65 0 c78 0 105 19 105 76 0 65 -11 74 -95 74 l-75
0 0 -75z"/>
<path d="M1510 2540 l0 -90 79 0 c92 0 102 7 109 80 3 36 0 57 -12 75 -15 23
-22 25 -96 25 l-80 0 0 -90z"/>
<path d="M2530 2700 l0 -240 68 0 c119 0 135 30 135 245 -1 208 -16 235 -130
235 l-73 0 0 -240z"/>
<path d="M3411 2812 c-13 -64 -26 -127 -28 -139 -5 -22 -3 -23 62 -23 l67 0
-4 28 c-20 113 -54 252 -63 252 -5 0 -21 -53 -34 -118z"/>
<path d="M4821 2812 c-13 -64 -26 -127 -28 -139 -5 -22 -3 -23 62 -23 l67 0
-4 28 c-20 113 -54 252 -63 252 -5 0 -21 -53 -34 -118z"/>
</g>
</svg>
